<svg width="512" height="512" viewBox="0 0 512 512" fill="none" xmlns="http://www.w3.org/2000/svg">
  <rect width="512" height="512" rx="124" fill="url(#paint0_linear_8271_1)"/>
  <rect x="20" y="20" width="472" height="472" rx="104" stroke="rgba(255,255,255,0.18)" stroke-width="4"/>
  <circle cx="132" cy="126" r="108" fill="url(#paint1_radial_8271_1)" opacity="0.6"/>
  <g transform="translate(91 91) scale(11)" filter="url(#filter0_d_8271_1)">
    <path fill-rule="evenodd" clip-rule="evenodd" d="M16.0715 0H13.9286V9.48797L10.3743 0.690873L8.38749 1.4936L12.0338 10.5186L5.15102 3.63578L3.63579 5.15102L10.2327 11.7479L1.68362 8.01272L0.825689 9.97634L9.87158 13.9286H0V16.0715H9.87156L0.825692 20.0237L1.68362 21.9873L10.2326 18.2522L3.63579 24.849L5.15102 26.3642L12.0338 19.4814L8.38749 28.5065L10.3743 29.3091L13.9286 20.5121V30H16.0715V20.5121L19.6257 29.3091L21.6124 28.5065L17.9663 19.4814L24.849 26.3642L26.3642 24.849L19.7673 18.2522L28.3164 21.9873L29.1742 20.0237L20.1285 16.0715H30V13.9286H20.1283L29.1742 9.97634L28.3164 8.01272L19.7673 11.7479L26.3642 5.151L24.849 3.63578L17.9663 10.5186L21.6124 1.4936L19.6257 0.690873L16.0715 9.48797V0Z" fill="#FFFFFF"/>
  </g>
  <defs>
    <filter id="filter0_d_8271_1" x="-6" y="-3" width="44" height="44" filterUnits="userSpaceOnUse" color-interpolation-filters="sRGB">
      <feFlood flood-opacity="0" result="BackgroundImageFix"/>
      <feColorMatrix in="SourceAlpha" type="matrix" values="0 0 0 0 0 0 0 0 0 0 0 0 0 0 0 0 0 0 127 0" result="hardAlpha"/>
      <feOffset dy="1"/>
      <feGaussianBlur stdDeviation="1"/>
      <feComposite in2="hardAlpha" operator="out"/>
      <feColorMatrix type="matrix" values="0 0 0 0 0.0901961 0 0 0 0 0.0588235 0 0 0 0 0.203922 0 0 0 0.65 0"/>
      <feBlend mode="normal" in2="BackgroundImageFix" result="effect1_dropShadow_8271_1"/>
      <feBlend mode="normal" in="SourceGraphic" in2="effect1_dropShadow_8271_1" result="shape"/>
    </filter>
    <linearGradient id="paint0_linear_8271_1" x1="66" y1="28" x2="446" y2="492" gradientUnits="userSpaceOnUse">
      <stop stop-color="#8C62FF"/>
      <stop offset="0.45" stop-color="#6936F2"/>
      <stop offset="1" stop-color="#140F2B"/>
    </linearGradient>
    <radialGradient id="paint1_radial_8271_1" cx="0" cy="0" r="1" gradientUnits="userSpaceOnUse" gradientTransform="translate(132 126) rotate(90) scale(108)">
      <stop stop-color="white"/>
      <stop offset="1" stop-color="white" stop-opacity="0"/>
    </radialGradient>
  </defs>
</svg>
